<?xml version="1.0" encoding="utf-8"?>
<!-- Generator: Adobe Illustrator 24.0.1, SVG Export Plug-In . SVG Version: 6.00 Build 0)  -->
<svg version="1.1" id="Layer_1" xmlns="http://www.w3.org/2000/svg" xmlns:xlink="http://www.w3.org/1999/xlink" x="0px" y="0px"
	 viewBox="0 0 114.4 97.2" style="enable-background:new 0 0 114.4 97.2;" xml:space="preserve">
<style type="text/css">
	.st0{enable-background:new    ;}
	.st1{fill:#FFFFFF;}
</style>
<g class="st0">
	<path class="st1" d="M86.6,60.4c0,20-12.8,35.5-33.5,35.5c-16.8,0-28.8-13.4-28.8-26c0-6.5,2.5-10.8,8.9-12.5
		C32.8,56,32,53.8,32,52.2c0-4.1,4.4-9.2,8.4-9.2c1.2,0,2.4,0.3,3.5,0.8c-2.2-6.2-8.1-22.1-8.1-28.3c0-5,2.6-9,8-9
		c7,0,14.9,25.2,16.6,30.2c2.2-5.5,9.2-28.5,17-28.5c4.9,0,7.6,3.9,7.6,8.5c0,5.3-5.9,21.8-7.9,27.5C85.4,46.1,86.6,52.9,86.6,60.4z
		 M78.5,51.1C74.3,47.4,59.9,46,54.3,46c-3,0-3,1.1-3,2.3c0,7.6,16.2,6.9,21.1,6.9c2,0,2.8,1.7,3,3.7c-1.3,1.3-3.1,2-4.8,2.7
		c-1.6,0.6-3.3,1.2-4.7,2.3c-3.8,2.8-7.6,7.6-7.6,12.5c0,3.1,1.9,5.8,1.9,8.8c0,0.1-0.3,1.1-0.3,1.3c-5.7-0.4-7.1-6-7.3-10.8
		c-0.6,0.2-1.4,0.1-2,0.1c0.9,3.1-2.1,7.3-6.6,7.3c-6.6,0-15.4-10-10.2-15.2c5,6.3,6.1,9,8.9,9c0.7,0,2-0.6,2-1.5
		c0-2.2-7.5-12.8-9.5-12.8c-2.9,0-6.6,4.4-3.6,11.9c4,9.7,12.1,15.4,22.5,15.4c7.6,0,14.1-2.9,19.2-8.5
		C82.7,70.9,81.6,53.9,78.5,51.1z M37.3,52.8c0,3.6,9.8,17.1,13.4,17.1c1,0,1.9-1.1,1.9-2c0-2.2-6.6-18.8-11.7-18.8
		C39.5,49.1,37.3,51.4,37.3,52.8z M49.2,40.9c1.3-0.8,3.5-0.5,6.2-0.2l-6-17.5c-5.6-16.2-8.1-10.3-8.1-8.2
		C41.2,19.9,47.3,35.8,49.2,40.9z M57.5,64c1.1-1.2,2.3-2.4,3.5-3.3c-1.7-0.3-3.5-0.5-5.2-1C56.4,61.1,57,62.5,57.5,64z M65.1,41.7
		l5.9,1c1.5-4.1,8.2-22.5,8.2-25.9c0-1.2-0.4-2.8-1.9-2.8c-2.8,0-5.8,9.1-6.5,11.2L65.1,41.7z"/>
</g>
</svg>
