<?xml version="1.0" encoding="utf-8"?>
<!-- Generator: Adobe Illustrator 24.0.1, SVG Export Plug-In . SVG Version: 6.00 Build 0)  -->
<svg version="1.1" id="Layer_1" xmlns="http://www.w3.org/2000/svg" xmlns:xlink="http://www.w3.org/1999/xlink" x="0px" y="0px"
	 viewBox="0 0 319.7 230.2" style="enable-background:new 0 0 319.7 230.2;" xml:space="preserve">
<style type="text/css">
	.st0{enable-background:new    ;}
	.st1{fill:#FFFFFF;}
</style>
<g class="st0">
	<path class="st1" d="M93.7,153.4c0,4.2-1.4,7.4-4.1,9.6c-2.7,2.2-6.6,3.3-11.7,3.3h-4.2v15h-6.5v-40h11.5c5,0,8.7,1,11.2,3.1
		C92.5,146.4,93.7,149.4,93.7,153.4z M73.8,160.8h3.5c3.4,0,5.8-0.6,7.4-1.8c1.6-1.2,2.4-3,2.4-5.5c0-2.3-0.7-4-2.1-5.1
		c-1.4-1.1-3.6-1.7-6.6-1.7h-4.5V160.8z"/>
	<path class="st1" d="M116.3,150.5c1.3,0,2.4,0.1,3.2,0.3l-0.6,6c-0.9-0.2-1.9-0.3-2.8-0.3c-2.6,0-4.7,0.8-6.2,2.5
		c-1.6,1.7-2.4,3.9-2.4,6.5v15.8H101V151h5l0.8,5.3h0.3c1-1.8,2.3-3.2,3.9-4.3C112.7,151,114.5,150.5,116.3,150.5z"/>
	<path class="st1" d="M152,166.1c0,4.9-1.3,8.8-3.8,11.6c-2.5,2.8-6.1,4.2-10.6,4.2c-2.8,0-5.3-0.6-7.5-1.9c-2.2-1.3-3.8-3.1-5-5.5
		c-1.2-2.4-1.8-5.2-1.8-8.3c0-4.9,1.3-8.7,3.8-11.5c2.5-2.8,6.1-4.1,10.6-4.1c4.4,0,7.8,1.4,10.4,4.2
		C150.7,157.5,152,161.3,152,166.1z M130,166.1c0,7,2.6,10.5,7.7,10.5c5.1,0,7.7-3.5,7.7-10.5c0-6.9-2.6-10.4-7.7-10.4
		c-2.7,0-4.7,0.9-5.9,2.7C130.6,160.2,130,162.7,130,166.1z"/>
	<path class="st1" d="M156.3,194.7c-1.9,0-3.5-0.2-4.8-0.7v-5.1c1.2,0.3,2.5,0.5,3.8,0.5c2.7,0,4.1-1.5,4.1-4.6V151h6.4v34.2
		c0,3.1-0.8,5.5-2.4,7.1C161.7,193.9,159.3,194.7,156.3,194.7z M159,143c0-1.1,0.3-2,0.9-2.7c0.6-0.6,1.5-0.9,2.7-0.9
		c1.1,0,2,0.3,2.6,0.9c0.6,0.6,0.9,1.5,0.9,2.7c0,1.1-0.3,2-0.9,2.6s-1.5,0.9-2.6,0.9c-1.2,0-2.1-0.3-2.7-0.9S159,144.1,159,143z"/>
	<path class="st1" d="M188.2,181.8c-4.7,0-8.4-1.4-11-4.1c-2.7-2.7-4-6.5-4-11.3c0-4.9,1.2-8.8,3.7-11.6c2.5-2.8,5.8-4.2,10.1-4.2
		c4,0,7.1,1.2,9.5,3.6c2.3,2.4,3.5,5.8,3.5,10v3.5h-20.2c0.1,2.9,0.9,5.2,2.4,6.8c1.5,1.6,3.6,2.4,6.3,2.4c1.8,0,3.4-0.2,5-0.5
		c1.5-0.3,3.2-0.9,5-1.7v5.2c-1.6,0.7-3.2,1.3-4.8,1.6C192.1,181.6,190.2,181.8,188.2,181.8z M187,155.3c-2,0-3.7,0.6-4.9,1.9
		c-1.2,1.3-2,3.2-2.2,5.7h13.7c0-2.5-0.6-4.4-1.8-5.7C190.6,156,189,155.3,187,155.3z"/>
	<path class="st1" d="M218.5,176.6c1.6,0,3.1-0.2,4.7-0.7v4.8c-0.7,0.3-1.6,0.6-2.7,0.8c-1.1,0.2-2.3,0.3-3.5,0.3
		c-6.1,0-9.1-3.2-9.1-9.6v-16.3h-4.1V153l4.4-2.4l2.2-6.4h4v6.7h8.6v4.9h-8.6v16.2c0,1.5,0.4,2.7,1.2,3.4
		C216.2,176.2,217.2,176.6,218.5,176.6z"/>
	<path class="st1" d="M256.1,166.1c0,4.9-1.3,8.8-3.8,11.6c-2.5,2.8-6.1,4.2-10.6,4.2c-2.8,0-5.3-0.6-7.5-1.9
		c-2.2-1.3-3.8-3.1-5-5.5c-1.2-2.4-1.8-5.2-1.8-8.3c0-4.9,1.3-8.7,3.8-11.5c2.5-2.8,6.1-4.1,10.6-4.1c4.4,0,7.8,1.4,10.4,4.2
		C254.8,157.5,256.1,161.3,256.1,166.1z M234.1,166.1c0,7,2.6,10.5,7.7,10.5c5.1,0,7.7-3.5,7.7-10.5c0-6.9-2.6-10.4-7.7-10.4
		c-2.7,0-4.7,0.9-5.9,2.7C234.7,160.2,234.1,162.7,234.1,166.1z"/>
</g>
<g class="st0">
	<path class="st1" d="M197.3,67.8c0,23.7-15.2,42-39.6,42c-19.9,0-34.1-15.8-34.1-30.8c0-7.7,2.9-12.8,10.6-14.8
		c-0.6-1.7-1.7-4.3-1.7-6.1c0-4.9,5.2-10.9,10-10.9c1.4,0,2.8,0.4,4.1,0.9c-2.6-7.3-9.6-26.2-9.6-33.5c0-6,3-10.7,9.5-10.7
		c8.3,0,17.7,29.8,19.7,35.7C168.7,33,177,5.7,186.2,5.7c5.8,0,9,4.6,9,10.1c0,6.3-7,25.8-9.4,32.5
		C195.8,50.8,197.3,58.8,197.3,67.8z M187.6,56.7c-5-4.4-21.9-6-28.6-6c-3.6,0-3.6,1.3-3.6,2.7c0,9,19.2,8.2,25,8.2
		c2.3,0,3.3,2,3.5,4.4c-1.5,1.5-3.7,2.4-5.7,3.2c-1.9,0.7-4,1.5-5.6,2.7c-4.6,3.3-9,9-9,14.8c0,3.7,2.2,6.8,2.2,10.4
		c0,0.1-0.4,1.3-0.4,1.5c-6.7-0.5-8.4-7.2-8.6-12.8c-0.7,0.2-1.7,0.1-2.4,0.1c1.1,3.7-2.5,8.7-7.9,8.7c-7.8,0-18.2-11.8-12.1-18
		c5.9,7.4,7.2,10.6,10.6,10.6c0.8,0,2.4-0.7,2.4-1.7c0-2.7-8.9-15.1-11.2-15.1c-3.5,0-7.8,5.2-4.3,14.1
		c4.7,11.5,14.4,18.3,26.7,18.3c9,0,16.7-3.4,22.7-10.1C192.6,80.1,191.3,60,187.6,56.7z M138.8,58.7c0,4.3,11.6,20.2,15.9,20.2
		c1.2,0,2.2-1.3,2.2-2.4c0-2.7-7.8-22.2-13.9-22.2C141.4,54.3,138.8,57.1,138.8,58.7z M152.9,44.6c1.6-0.9,4.1-0.6,7.3-0.3
		l-7.2-20.8c-6.6-19.2-9.6-12.2-9.6-9.8C143.5,19.8,150.7,38.6,152.9,44.6z M162.7,72c1.3-1.5,2.7-2.8,4.2-4
		c-2.1-0.4-4.1-0.6-6.1-1.2C161.4,68.5,162.1,70.2,162.7,72z M171.7,45.5l7,1.2c1.8-4.8,9.8-26.7,9.8-30.6c0-1.5-0.5-3.3-2.3-3.3
		c-3.3,0-6.9,10.8-7.7,13.3L171.7,45.5z"/>
</g>
</svg>
