<?xml version="1.0" encoding="utf-8"?>
<!-- Generator: Adobe Illustrator 24.0.1, SVG Export Plug-In . SVG Version: 6.00 Build 0)  -->
<svg version="1.1" id="Layer_1" xmlns="http://www.w3.org/2000/svg" xmlns:xlink="http://www.w3.org/1999/xlink" x="0px" y="0px"
	 viewBox="0 0 319.7 230.2" style="enable-background:new 0 0 319.7 230.2;" xml:space="preserve">
<style type="text/css">
	.st0{enable-background:new    ;}
	.st1{fill:#018383;}
</style>
<g class="st0">
	<path class="st1" d="M96.2,154c0,4.2-1.4,7.4-4.1,9.6c-2.7,2.2-6.6,3.3-11.7,3.3h-4.2v15h-6.5v-40h11.5c5,0,8.7,1,11.2,3.1
		C95,147,96.2,150,96.2,154z M76.3,161.4h3.5c3.4,0,5.8-0.6,7.4-1.8c1.6-1.2,2.4-3,2.4-5.5c0-2.3-0.7-4-2.1-5.1
		c-1.4-1.1-3.6-1.7-6.6-1.7h-4.5V161.4z"/>
	<path class="st1" d="M118.8,151.1c1.3,0,2.4,0.1,3.2,0.3l-0.6,6c-0.9-0.2-1.9-0.3-2.8-0.3c-2.6,0-4.7,0.8-6.2,2.5
		c-1.6,1.7-2.4,3.9-2.4,6.5v15.8h-6.4v-30.2h5l0.8,5.3h0.3c1-1.8,2.3-3.2,3.9-4.3C115.3,151.6,117,151.1,118.8,151.1z"/>
	<path class="st1" d="M154.5,166.7c0,4.9-1.3,8.8-3.8,11.6c-2.5,2.8-6.1,4.2-10.6,4.2c-2.8,0-5.3-0.6-7.5-1.9
		c-2.2-1.3-3.8-3.1-5-5.5c-1.2-2.4-1.8-5.2-1.8-8.3c0-4.9,1.3-8.7,3.8-11.5c2.5-2.8,6.1-4.1,10.6-4.1c4.4,0,7.8,1.4,10.4,4.2
		C153.2,158.1,154.5,161.9,154.5,166.7z M132.5,166.7c0,7,2.6,10.5,7.7,10.5c5.1,0,7.7-3.5,7.7-10.5c0-6.9-2.6-10.4-7.7-10.4
		c-2.7,0-4.7,0.9-5.9,2.7C133.1,160.8,132.5,163.4,132.5,166.7z"/>
	<path class="st1" d="M158.8,195.3c-1.9,0-3.5-0.2-4.8-0.7v-5.1c1.2,0.3,2.5,0.5,3.8,0.5c2.7,0,4.1-1.5,4.1-4.6v-33.8h6.4v34.2
		c0,3.1-0.8,5.5-2.4,7.1C164.2,194.5,161.9,195.3,158.8,195.3z M161.5,143.6c0-1.1,0.3-2,0.9-2.7c0.6-0.6,1.5-0.9,2.7-0.9
		c1.1,0,2,0.3,2.6,0.9c0.6,0.6,0.9,1.5,0.9,2.7c0,1.1-0.3,2-0.9,2.6s-1.5,0.9-2.6,0.9c-1.2,0-2.1-0.3-2.7-0.9
		S161.5,144.7,161.5,143.6z"/>
	<path class="st1" d="M190.7,182.4c-4.7,0-8.4-1.4-11-4.1c-2.7-2.7-4-6.5-4-11.3c0-4.9,1.2-8.8,3.7-11.6c2.5-2.8,5.8-4.2,10.1-4.2
		c4,0,7.1,1.2,9.5,3.6c2.3,2.4,3.5,5.8,3.5,10v3.5h-20.2c0.1,2.9,0.9,5.2,2.4,6.8c1.5,1.6,3.6,2.4,6.3,2.4c1.8,0,3.4-0.2,5-0.5
		c1.5-0.3,3.2-0.9,5-1.7v5.2c-1.6,0.7-3.2,1.3-4.8,1.6C194.6,182.3,192.7,182.4,190.7,182.4z M189.5,155.9c-2,0-3.7,0.6-4.9,1.9
		c-1.2,1.3-2,3.2-2.2,5.7h13.7c0-2.5-0.6-4.4-1.8-5.7C193.2,156.6,191.5,155.9,189.5,155.9z"/>
	<path class="st1" d="M221,177.2c1.6,0,3.1-0.2,4.7-0.7v4.8c-0.7,0.3-1.6,0.6-2.7,0.8c-1.1,0.2-2.3,0.3-3.5,0.3
		c-6.1,0-9.1-3.2-9.1-9.6v-16.3h-4.1v-2.8l4.4-2.4l2.2-6.4h4v6.7h8.6v4.9h-8.6v16.2c0,1.5,0.4,2.7,1.2,3.4
		C218.7,176.9,219.7,177.2,221,177.2z"/>
	<path class="st1" d="M258.6,166.7c0,4.9-1.3,8.8-3.8,11.6c-2.5,2.8-6.1,4.2-10.6,4.2c-2.8,0-5.3-0.6-7.5-1.9
		c-2.2-1.3-3.8-3.1-5-5.5c-1.2-2.4-1.8-5.2-1.8-8.3c0-4.9,1.3-8.7,3.8-11.5c2.5-2.8,6.1-4.1,10.6-4.1c4.4,0,7.8,1.4,10.4,4.2
		C257.3,158.1,258.6,161.9,258.6,166.7z M236.6,166.7c0,7,2.6,10.5,7.7,10.5c5.1,0,7.7-3.5,7.7-10.5c0-6.9-2.6-10.4-7.7-10.4
		c-2.7,0-4.7,0.9-5.9,2.7C237.2,160.8,236.6,163.4,236.6,166.7z"/>
</g>
<g class="st0">
	<path class="st1" d="M199.8,68.4c0,23.7-15.2,42-39.6,42c-19.9,0-34.1-15.8-34.1-30.8c0-7.7,2.9-12.8,10.6-14.8
		c-0.6-1.7-1.7-4.3-1.7-6.1c0-4.9,5.2-10.9,10-10.9c1.4,0,2.8,0.4,4.1,0.9c-2.6-7.3-9.6-26.2-9.6-33.5c0-6,3-10.7,9.5-10.7
		c8.3,0,17.7,29.8,19.7,35.7c2.6-6.5,10.9-33.8,20.1-33.8c5.8,0,9,4.6,9,10.1c0,6.3-7,25.8-9.4,32.5
		C198.3,51.4,199.8,59.5,199.8,68.4z M190.1,57.3c-5-4.4-21.9-6-28.6-6c-3.6,0-3.6,1.3-3.6,2.7c0,9,19.2,8.2,25,8.2
		c2.3,0,3.3,2,3.5,4.4c-1.5,1.5-3.7,2.4-5.7,3.2c-1.9,0.7-4,1.5-5.6,2.7c-4.6,3.3-9,9-9,14.8c0,3.7,2.2,6.8,2.2,10.4
		c0,0.1-0.4,1.3-0.4,1.5c-6.7-0.5-8.4-7.2-8.6-12.8c-0.7,0.2-1.7,0.1-2.4,0.1c1.1,3.7-2.5,8.7-7.9,8.7c-7.8,0-18.2-11.8-12.1-18
		c5.9,7.4,7.2,10.6,10.6,10.6c0.8,0,2.4-0.7,2.4-1.7c0-2.7-8.9-15.1-11.2-15.1c-3.5,0-7.8,5.2-4.3,14.1
		c4.7,11.5,14.4,18.3,26.7,18.3c9,0,16.7-3.4,22.7-10.1C195.1,80.7,193.8,60.6,190.1,57.3z M141.3,59.3c0,4.3,11.6,20.2,15.9,20.2
		c1.2,0,2.2-1.3,2.2-2.4c0-2.7-7.8-22.2-13.9-22.2C143.9,54.9,141.3,57.7,141.3,59.3z M155.4,45.2c1.6-0.9,4.1-0.6,7.3-0.3
		l-7.2-20.8C149,4.9,146,11.9,146,14.4C146,20.4,153.2,39.2,155.4,45.2z M165.2,72.6c1.3-1.5,2.7-2.8,4.2-4
		c-2.1-0.4-4.1-0.6-6.1-1.2C163.9,69.1,164.6,70.8,165.2,72.6z M174.2,46.1l7,1.2c1.8-4.8,9.8-26.7,9.8-30.6c0-1.5-0.5-3.3-2.3-3.3
		c-3.3,0-6.9,10.8-7.7,13.3L174.2,46.1z"/>
</g>
</svg>
